<?xml version="1.0" standalone="no"?>
<!DOCTYPE svg PUBLIC "-//W3C//DTD SVG 20010904//EN"
 "http://www.w3.org/TR/2001/REC-SVG-20010904/DTD/svg10.dtd">
<svg version="1.0" xmlns="http://www.w3.org/2000/svg"
 width="32.000000pt" height="32.000000pt" viewBox="0 0 32.000000 32.000000"
 preserveAspectRatio="xMidYMid meet">
<metadata>
Created by potrace 1.16, written by Peter Selinger 2001-2019
</metadata>
<g transform="translate(0.000000,32.000000) scale(0.100000,-0.100000)"
fill="#000000" stroke="none">
<path d="M27 313 c-4 -3 -7 -22 -7 -41 0 -20 -5 -50 -12 -68 -9 -26 -9 -41 1
-71 7 -21 13 -58 14 -83 l2 -45 124 -3 c105 -2 127 0 142 14 23 21 26 86 4
104 -8 7 -15 28 -15 46 0 19 -4 34 -10 34 -5 0 -10 -11 -10 -25 0 -15 -6 -25
-15 -25 -30 0 -64 -24 -76 -53 -11 -25 -10 -34 4 -59 l17 -29 -73 3 -72 3 -3
52 -3 53 66 0 66 0 -3 48 -3 47 -63 3 -63 3 3 42 3 42 77 3 78 3 0 -31 c0 -27
3 -30 30 -30 23 0 30 -4 30 -20 0 -11 5 -20 10 -20 20 0 9 40 -21 75 l-31 35
-92 0 c-51 0 -96 -3 -99 -7z"/>
</g>
</svg>
